<!-- Generator: Adobe Illustrator 23.1.1, SVG Export Plug-In . SVG Version: 6.00 Build 0)  -->
<svg version="1.1" id="Layer_1" xmlns="http://www.w3.org/2000/svg" xmlns:xlink="http://www.w3.org/1999/xlink" x="0px" y="0px"
	 viewBox="0 0 350.9 573.54" style="enable-background:new 0 0 350.9 573.54;" xml:space="preserve">
<style type="text/css">
	.st0{fill:url(#SVGID_1_);}
	.st1{fill:#4E4060;}
	.st2{fill:#635572;}
	.st3{fill:#A698B6;}
	.st4{fill:#D7D3DF;}
	.st5{fill:#00E0D5;}
	.st6{fill:#87A936;}
	.st7{fill:#00CEC3;}
	.st8{fill:#00E2D1;}
	.st9{fill:#5FFFEF;}
	.st10{fill:#DAD5E0;}
	.st11{fill:#FFFFFF;}
	.st12{fill:#FCCAA2;}
	.st13{fill:#C19E82;}
	.st14{fill:#EAB794;}
	.st15{fill:#FCCA01;}
	.st16{fill:#F18E1B;}
	.st17{fill:#4A5061;}
	.st18{fill:#443F4A;}
	.st19{fill:url(#SVGID_2_);}
	.st20{fill:#946054;}
	.st21{fill:url(#SVGID_3_);}
	.st22{fill:#5A3921;}
	.st23{fill:#864F26;}
	.st24{fill:url(#SVGID_4_);}
	.st25{fill:#DFA09B;}
	.st26{fill:#412B24;}
	.st27{fill:#2F3641;}
	.st28{fill:none;stroke:#2F3641;stroke-width:1.0819;stroke-linecap:round;stroke-miterlimit:10;}
	.st29{opacity:0.28;fill:#1D2129;}
	.st30{fill:#C3811B;}
	.st31{fill:#E5A919;}
	.st32{fill:#F2CD15;}
	.st33{fill:#1D2129;}
	.st34{fill:#06F7DA;}
	.st35{opacity:0.84;}
	.st36{fill:#05CCC2;}
	.st37{opacity:0.61;}
	.st38{fill:#77668C;}
	.st39{fill:#393D3F;}
	.st40{fill:none;stroke:url(#SVGID_5_);stroke-width:3.2457;stroke-linecap:round;stroke-miterlimit:10;}
	@keyframes width_scale {
		0% {
			opacity: 0;
		}
		100% {
			opacity: 1;
		}
	}
	@keyframes scale {
		0% {
			transform: translate(0px, 0px);
		}
		100% {
			transform: translate(2px, 8px)
		}
	}
	@keyframes scale2 {
		0% {
			transform: translate(0px, 0px);
		}
		100% {
			transform: translate(-1px, 8px)
		}
	}
	@keyframes scale3 {
		0% {
			transform: translate(1px, 0px);
		}
		100% {
			transform: translate(-6px, 0px)
		}
	}
	@keyframes scale4 {
		0% {
			transform: translate(0px, -3px);
		}
		100% {
			transform: translate(-1px, 2px)
		}
	}
</style>
<linearGradient id="SVGID_1_" gradientUnits="userSpaceOnUse" x1="136.5822" y1="276.6031" x2="20.2073" y2="244.5872">
	<stop  offset="0" style="stop-color:#E9CA00"/>
	<stop  offset="1" style="stop-color:#EEE867;stop-opacity:0"/>
</linearGradient>
<polygon style="animation: 1s width_scale infinite linear alternate;" class="st0" points="93.1,257.87 17.92,207.81 0,275.17 92.39,260.88 "/>
<path class="st1" d="M283.08,288.62l-43.86-21.42c-6.58-1.07-11.41-6.75-11.41-13.41l-18.35-98.85c0-8.38,25.86-23.85,34.13-22.51
	l58.02,9.44c6.58,1.07,11.41,6.75,11.41,13.41v107.95C313.01,271.6,291.35,289.97,283.08,288.62z"/>
<path class="st2" d="M310.41,147.29c-2.05-2.82-5.16-4.83-8.81-5.43l-58.02-9.44c-8.27-1.35-34.13,14.13-34.13,22.51l10.24,55.14
	l37.44-24.09L310.41,147.29z"/>
<path class="st3" d="M278.13,289.46l-58.02-9.44c-6.58-1.07-11.41-6.75-11.41-13.41V158.65c0-8.38,7.5-14.76,15.77-13.41l58.02,9.44
	c6.58,1.07,11.41,6.75,11.41,13.41v107.95C293.9,284.42,286.4,290.8,278.13,289.46z"/>
<path class="st4" d="M200.85,255.23l-25.48-12.38c0,0,34.41-79.23,44.87-86.78c7.69-5.55,19.03,24.97,11.07,42.03
	C225.47,210.58,200.85,255.23,200.85,255.23z"/>
<path class="st2" d="M224.53,151.43c-11.3,5.74-19.63,18.33-22.96,36.66c-3.33,18.33,5,18.89,5,18.89S230.83,149.94,224.53,151.43z"
	/>
<path class="st4" d="M175.36,242.85c-7.35,3.16-32.55,12.15-48.08,16.69c-1.22,0.17-4.72,1.84-1.73,5.76
	c5.03,6.59,51.65,4.65,67.18-0.32c9.99-3.2,5.49-16.8,5.49-16.8S187.03,237.84,175.36,242.85z"/>
<path class="st2" d="M125.76,258.94c0,0,8.77-2.36,11.49-3.31c5.82,4.71,7.66,15.32,7.66,15.32s-15.76,0.07-20.92-2.8
	C118.84,265.27,125.76,258.94,125.76,258.94z"/>
<path class="st5" d="M178.36,466.88c-0.64,0.25-1.99,0.26-2.39,0.12c-0.76-0.26,0.57-1.27,0.25-7.4c-0.23-4.58-0.37-7.26-0.37-7.26
	l1.13-0.06c0,0,0.14,2.76,0.37,7.32C177.66,465.6,179.04,466.62,178.36,466.88z"/>
<path class="st6" d="M175.96,467.01c0.4,0.14,1.76,0.13,2.39-0.12c0.45-0.18,0-0.69-0.45-2.77l-1.79,0.09
	C175.87,466.32,175.46,466.83,175.96,467.01z"/>
<path class="st7" d="M176.98,452.29l-1.13,0.06c0,0,0.03,0.67,0.1,1.91l1.13-0.06C177.02,452.97,176.98,452.29,176.98,452.29z"/>
<path class="st8" d="M180.44,448.42c0.12,2.33-1.67,4.31-4,4.43c-2.33,0.12-4.31-1.67-4.43-4c-0.12-2.33,1.67-4.31,4-4.43
	C178.34,444.3,180.32,446.09,180.44,448.42z"/>
<path class="st7" d="M177.26,451.07c-2.01,0.1-3.72-1.44-3.82-3.45c-0.06-1.15,0.42-2.2,1.22-2.91c-1.63,0.65-2.74,2.28-2.64,4.13
	c0.12,2.33,2.1,4.12,4.43,4c2.2-0.11,3.91-1.89,4-4.04C179.92,450.07,178.71,451,177.26,451.07z"/>
<path class="st9" d="M179.4,447.64c-0.34,0.68-1.46,0.8-2.51,0.28c-1.05-0.52-1.63-1.49-1.29-2.17c0.34-0.68,1.46-0.8,2.51-0.28
	C179.16,445.99,179.73,446.96,179.4,447.64z"/>
<path class="st5" d="M80.04,485.73c-0.78,0.71-2.71,1.45-3.36,1.48c-1.23,0.04,0.12-2.13-3.66-10.71
	c-2.83-6.42-4.47-10.17-4.47-10.17l1.59-0.7c0,0,1.7,3.87,4.51,10.26C78.35,484.27,80.87,484.97,80.04,485.73z"/>
<path class="st6" d="M76.69,487.2c0.65-0.02,2.58-0.77,3.36-1.48c0.55-0.5-0.38-0.98-2.15-3.71l-2.51,1.1
	C76.19,486.28,75.87,487.23,76.69,487.2z"/>
<path class="st7" d="M70.14,465.62l-1.59,0.7c0,0,0.41,0.94,1.18,2.68l1.59-0.7C70.56,466.58,70.14,465.62,70.14,465.62z"/>
<path class="st8" d="M72.98,458.21c1.43,3.26-0.05,7.07-3.31,8.5c-3.26,1.43-7.07-0.05-8.5-3.31c-1.43-3.26,0.05-7.07,3.31-8.5
	C67.74,453.47,71.54,454.95,72.98,458.21z"/>
<path class="st7" d="M69.87,463.74c-2.81,1.24-6.09-0.04-7.33-2.85c-0.71-1.61-0.59-3.37,0.16-4.82c-1.97,1.82-2.67,4.75-1.53,7.34
	c1.43,3.26,5.24,4.74,8.5,3.31c3.08-1.35,4.56-4.82,3.52-7.95C73.14,460.86,71.92,462.84,69.87,463.74z"/>
<path class="st9" d="M71.07,457.67c-0.11,1.15-1.65,1.94-3.43,1.76c-1.78-0.18-3.14-1.25-3.02-2.4c0.11-1.15,1.65-1.94,3.43-1.76
	C69.83,455.44,71.18,456.52,71.07,457.67z"/>
<path class="st5" d="M198.07,477.91c-0.91-0.52-2.22-2.13-2.44-2.74c-0.42-1.16,2.06-0.54,9.07-6.77c5.24-4.66,8.3-7.38,8.3-7.38
	l1.15,1.3c0,0-3.16,2.81-8.38,7.45C198.93,475.85,199.04,478.47,198.07,477.91z"/>
<path class="st6" d="M195.63,475.17c0.22,0.61,1.52,2.22,2.44,2.74c0.65,0.37,0.82-0.66,2.87-3.19l-1.82-2.05
	C196.36,474.41,195.36,474.4,195.63,475.17z"/>
<path class="st7" d="M214.16,462.31l-1.15-1.3c0,0-0.77,0.68-2.19,1.95l1.15,1.3C213.38,463,214.16,462.31,214.16,462.31z"/>
<path class="st8" d="M222.09,462.74c-2.66,2.37-6.74,2.13-9.1-0.54c-2.37-2.66-2.13-6.74,0.54-9.1s6.74-2.13,9.1,0.54
	C224.99,456.29,224.75,460.37,222.09,462.74z"/>
<path class="st7" d="M215.87,461.48c-2.04-2.3-1.83-5.81,0.46-7.85c1.31-1.17,3.03-1.6,4.63-1.32c-2.33-1.32-5.34-1.09-7.45,0.79
	c-2.66,2.37-2.9,6.44-0.54,9.1c2.23,2.51,5.99,2.86,8.64,0.91C219.62,463.71,217.36,463.15,215.87,461.48z"/>
<path class="st9" d="M222.02,460.75c-1.13,0.25-2.35-0.98-2.73-2.73c-0.38-1.75,0.23-3.37,1.35-3.61c1.13-0.25,2.35,0.98,2.73,2.73
	C223.75,458.89,223.15,460.5,222.02,460.75z"/>
<path class="st5" d="M105.23,485.19c-0.62,0.27-1.95,0.32-2.35,0.2c-0.76-0.23,0.51-1.27-0.01-7.28c-0.39-4.49-0.61-7.11-0.61-7.11
	l1.11-0.1c0,0,0.23,2.71,0.62,7.17C104.5,483.95,105.89,484.9,105.23,485.19z"/>
<path class="st6" d="M102.88,485.39c0.4,0.12,1.73,0.07,2.35-0.2c0.44-0.19-0.03-0.68-0.54-2.7l-1.75,0.15
	C102.77,484.73,102.38,485.24,102.88,485.39z"/>
<path class="st7" d="M103.38,470.91l-1.11,0.1c0,0,0.06,0.66,0.16,1.88l1.11-0.1C103.43,471.58,103.38,470.91,103.38,470.91z"/>
<path class="st8" d="M106.64,466.99c0.2,2.28-1.49,4.29-3.77,4.48s-4.29-1.49-4.49-3.77c-0.2-2.28,1.49-4.29,3.77-4.48
	C104.43,463.02,106.44,464.71,106.64,466.99z"/>
<path class="st7" d="M103.6,469.71c-1.97,0.17-3.7-1.29-3.87-3.25c-0.1-1.13,0.34-2.17,1.1-2.89c-1.57,0.7-2.61,2.33-2.45,4.14
	c0.2,2.28,2.2,3.97,4.48,3.77c2.15-0.19,3.78-1.99,3.79-4.1C106.19,468.63,105.03,469.58,103.6,469.71z"/>
<path class="st9" d="M105.59,466.26c-0.31,0.68-1.41,0.84-2.45,0.36c-1.05-0.48-1.65-1.41-1.34-2.09c0.31-0.68,1.41-0.84,2.45-0.36
	C105.29,464.65,105.9,465.59,105.59,466.26z"/>
<path class="st5" d="M64.84,504.15c0.27,0.7,0.27,2.18,0.12,2.61c-0.29,0.83-1.39-0.62-8.07-0.31c-5,0.23-7.92,0.37-7.92,0.37
	l-0.06-1.24c0,0,3.01-0.14,7.99-0.37C63.43,504.91,64.55,503.41,64.84,504.15z"/>
<path class="st6" d="M64.96,506.76c0.15-0.44,0.15-1.91-0.12-2.61c-0.19-0.5-0.75,0-3.02,0.48l0.09,1.95
	C64.21,506.86,64.77,507.32,64.96,506.76z"/>
<path class="st7" d="M48.91,505.58l0.06,1.24c0,0,0.73-0.03,2.09-0.1L51,505.49C49.65,505.55,48.91,505.58,48.91,505.58z"/>
<path class="st8" d="M44.71,501.79c2.54-0.12,4.69,1.84,4.81,4.38c0.12,2.54-1.84,4.69-4.38,4.81c-2.54,0.12-4.69-1.84-4.81-4.38
	C40.21,504.06,42.17,501.91,44.71,501.79z"/>
<path class="st7" d="M47.59,505.28c0.1,2.19-1.59,4.05-3.78,4.15c-1.25,0.06-2.39-0.47-3.16-1.35c0.7,1.78,2.47,3,4.49,2.9
	c2.54-0.12,4.5-2.27,4.38-4.81c-0.11-2.4-2.04-4.28-4.39-4.38C46.51,502.36,47.51,503.69,47.59,505.28z"/>
<path class="st9" d="M43.85,502.92c0.74,0.37,0.87,1.6,0.29,2.74c-0.57,1.14-1.64,1.77-2.37,1.4c-0.74-0.37-0.87-1.6-0.29-2.74
	C42.05,503.18,43.12,502.55,43.85,502.92z"/>
<path class="st10" d="M334.29,555.31c0,5.04-69.85,9.12-156.02,9.12s-156.02-4.08-156.02-9.12c0-5.04,69.85-9.12,156.02-9.12
	S334.29,550.27,334.29,555.31z"/>
<path class="st4" d="M240.46,336.66l-6.37-16.36l-35.87-18.25l-74.01,35.6c-4.22,2.03-6.45,6.72-5.34,11.27
	c5.41,22.26,20.71,84.89,22.74,90.35c12.08,3.63,22.76-1.18,22.76-1.18l-6.5-73.14C191.86,355.76,240.46,336.66,240.46,336.66z"/>
<path class="st11" d="M194.19,299.32c0,0-1.84,19.25,15.36,29.43c17.2,10.19,30.37,11.32,30.37,11.32l30.29,164.73
	c0,0,7.09,6.33,17.55-1.33l-7.39-199.52L194.19,299.32z"/>
<g>
	<path class="st12" d="M233.24,143.28l-0.34,15.44l20.48,0.7l0.44-20.08C245.22,144.21,236.73,143.81,233.24,143.28z"/>
	<path class="st13" d="M253.82,139.34l0.34-15.47l-20.48-0.7l-0.44,20.11C236.73,143.81,245.22,144.21,253.82,139.34z"/>
</g>
<path class="st14" d="M241.69,162.21c12.12,0,15.03-8.4,15.45-11.02c-8.61-2.16-17.13-3.04-27.73-1.25
	C229.16,152.99,229.78,162.21,241.69,162.21z"/>
<path class="st11" d="M272.67,156.31c-4.41-4.16-8.96-6.46-14.58-8.32c-0.75-0.25-3.68-1-4.44-1.15c-0.52,2.62-8.98,12.29-14.6,12.4
	c-9.15,0.17-6.86-6.71-6.55-9.76c-10.67-0.54-21.23,14.73-28.18,41.22c-5.5,20.95-18.53,93.99-9.52,114.82
	c10.28,5.81,76.18,9.38,87.35,3.13c3.19-7.42-0.68-114.41-1.72-127.61C279.4,167.85,278.47,161.78,272.67,156.31z"/>
<path class="st2" d="M191.67,291c0,0,48.07,11.7,92.58,3.12c1.9,4.68,0.14,10.57,0.14,10.57s-45.9,7.39-92.37-3.97
	C190.06,296.69,191.67,291,191.67,291z"/>
<path class="st2" d="M268.7,153.05c-8.12,5.08-17.76,22.76-11.14,42.4c5.41,16.07,27.07,16.24,27.07,16.24l0.68,5.92
	c0,0-23.69,5.58-33.84-18.78s3.21-42.64,10.15-49.41C264.84,146.55,268.2,150.17,268.7,153.05z"/>
<polygon class="st15" points="260.98,289.76 92.01,261.18 92.84,257.34 261.89,283.99 "/>
<rect x="93.5" y="257.2" transform="matrix(0.985 0.1728 -0.1728 0.985 46.3739 -12.727)" class="st16" width="5.57" height="5.57"/>
<path class="st17" d="M282.12,298.91l-23.18-6.31c-1.27-4.04-0.98-7.77,1.73-11.02l23.18,0.98L282.12,298.91z"/>
<path class="st18" d="M196.65,94.73c-4.57-9.54-10.73-35.18-9.94-45.12c0.8-9.94,2.39,1.99,2.39,1.99s-0.4-21.07,11.73-33
	c4.77-5.96,4.57-3.98,2.78-0.4c13.52-13.72,44.33-23.46,36.77-15.11c12.72-6.96,40.35,11.73,20.67,7.95
	c22.06,8.35,26.83,23.46,26.83,23.46s-1.19-6.36,1.39-4.97c2.58,1.39,8.55,34.19-3.38,61.22
	C273.97,117.79,212.55,110.43,196.65,94.73z"/>
<g>
	<path class="st12" d="M212.27,97.9c2.63,6.81,2.58,12.06-1.87,14.03c-4.45,1.97-14.06-0.62-16.69-7.44
		c-2.63-6.82-1.16-13.94,3.29-15.92C201.45,86.61,209.64,91.08,212.27,97.9z"/>
	<path class="st12" d="M201.29,105.99c3.57,23.34,20.21,39,43.69,36.93c21.36-1.89,36.12-31.74,36.73-58.97
		c0.6-27.23-13.99-48.77-39.78-48.37C202.43,36.2,193.76,56.81,201.29,105.99z"/>
	<path class="st12" d="M269.11,95.73c-2.72,6.78-2.73,12.03,1.7,14.06c4.42,2.03,14.06-0.45,16.78-7.23
		c2.72-6.79,1.33-13.93-3.09-15.96C280.07,84.57,271.82,88.94,269.11,95.73z"/>
	
		<linearGradient id="SVGID_2_" gradientUnits="userSpaceOnUse" x1="421.8417" y1="28.5111" x2="411.8246" y2="34.7379" gradientTransform="matrix(0.9679 0.2513 -0.2513 0.9679 -153.9689 -37.3687)">
		<stop  offset="0" style="stop-color:#BD8078"/>
		<stop  offset="1" style="stop-color:#E6B8AC;stop-opacity:0"/>
	</linearGradient>
	<path class="st19" d="M234.91,93.26c6.26-1.25,11.53-0.22,12.7,4.42c1.17,4.64-5.16,7.47-10.35,8.08
		C232.06,106.37,230.04,94.24,234.91,93.26z"/>
	<g>
		<path class="st20" d="M232.16,94.14c0,0,0.45-0.16,1.25-0.43c0.4-0.11,0.9-0.26,1.47-0.4c0.57-0.13,1.23-0.28,1.95-0.36
			c0.72-0.1,1.51-0.16,2.35-0.17c0.84-0.01,1.73,0.04,2.64,0.2c0.91,0.15,1.85,0.41,2.75,0.82c0.9,0.41,1.78,0.97,2.46,1.78
			c0.68,0.8,1.1,1.88,1.06,2.95c-0.03,1.07-0.51,2.03-1.07,2.79c-0.57,0.76-1.23,1.39-1.92,1.89c-0.67,0.51-1.35,0.93-1.99,1.28
			c-0.63,0.36-1.25,0.62-1.79,0.86c-0.55,0.21-1.02,0.42-1.42,0.55c-0.8,0.26-1.26,0.4-1.26,0.4s0.43-0.21,1.19-0.58
			c0.38-0.17,0.82-0.43,1.34-0.69c0.5-0.29,1.07-0.61,1.67-1c0.6-0.38,1.22-0.83,1.83-1.36c0.62-0.51,1.17-1.15,1.67-1.83
			c0.48-0.69,0.81-1.51,0.83-2.34c0.02-0.83-0.3-1.64-0.86-2.3c-0.55-0.67-1.32-1.18-2.12-1.56c-0.81-0.37-1.66-0.66-2.52-0.83
			c-0.85-0.17-1.7-0.29-2.5-0.33c-0.81-0.05-1.58-0.04-2.28,0c-1.42,0.08-2.6,0.26-3.42,0.4C232.63,94.05,232.16,94.14,232.16,94.14
			z"/>
	</g>
	<g>
		
			<linearGradient id="SVGID_3_" gradientUnits="userSpaceOnUse" x1="393.6169" y1="16.0823" x2="397.7732" y2="30.1841" gradientTransform="matrix(0.9679 0.2513 -0.2513 0.9679 -153.9689 -37.3687)">
			<stop  offset="0" style="stop-color:#C99A69"/>
			<stop  offset="1" style="stop-color:#C99A69;stop-opacity:0"/>
		</linearGradient>
		<path class="st21" d="M232.18,76.35c0.57,4.29,2.98,16.88-9.09,17.88c-12.07,1.01-9.2-13.58-9.2-13.58S226.67,76.91,232.18,76.35z
			"/>
		<path class="st22" d="M228.18,92.98c-0.23,0.88-1.13,1.41-2.01,1.18c-0.88-0.23-1.41-1.13-1.18-2.01
			c0.23-0.88,1.13-1.41,2.01-1.18C227.88,91.2,228.4,92.1,228.18,92.98z"/>
		<path class="st23" d="M229.58,75.58c-13.84,0.96-21.43,6.46-12.64,6.39C225.74,81.9,238.7,74.94,229.58,75.58z"/>
	</g>
	<g>
		
			<linearGradient id="SVGID_4_" gradientUnits="userSpaceOnUse" x1="458.9774" y1="-0.8876" x2="463.1338" y2="13.2143" gradientTransform="matrix(-0.9679 0.2513 0.2513 0.9679 699.4269 -37.3687)">
			<stop  offset="0" style="stop-color:#C99A69"/>
			<stop  offset="1" style="stop-color:#C99A69;stop-opacity:0"/>
		</linearGradient>
		<path class="st24" d="M245.75,76.35c-0.57,4.29-2.98,16.88,9.09,17.88c12.07,1.01,9.2-13.58,9.2-13.58S251.26,76.91,245.75,76.35z
			"/>
		<path class="st22" d="M249.76,92.98c0.23,0.88,1.13,1.41,2.01,1.18c0.88-0.23,1.41-1.13,1.18-2.01c-0.23-0.88-1.13-1.41-2.01-1.18
			C250.06,91.2,249.53,92.1,249.76,92.98z"/>
		<path class="st23" d="M248.35,75.58c13.84,0.96,21.43,6.46,12.64,6.39C252.2,81.9,239.23,74.94,248.35,75.58z"/>
	</g>
	<path class="st25" d="M216.08,97.44c0,0.93-2.41,1.68-5.38,1.68s-5.38-0.75-5.38-1.68c0-0.93,2.41-1.68,5.38-1.68
		S216.08,96.52,216.08,97.44z"/>
	<path class="st25" d="M272.84,97.44c0,0.93-2.41,1.68-5.38,1.68s-5.38-0.75-5.38-1.68c0-0.93,2.41-1.68,5.38-1.68
		S272.84,96.52,272.84,97.44z"/>
</g>
<g>
	<path class="st26" d="M227.45,116.66c0,0-0.03,0.1-0.08,0.3c-0.02,0.1-0.07,0.22-0.09,0.36c-0.01,0.14-0.01,0.31-0.02,0.49
		c-0.02,0.18-0.01,0.38,0.03,0.6c0.04,0.22,0.03,0.46,0.11,0.71c0.07,0.25,0.14,0.51,0.21,0.78c0.1,0.27,0.21,0.55,0.32,0.84
		c0.09,0.3,0.28,0.57,0.44,0.87c0.15,0.3,0.33,0.59,0.57,0.87c0.4,0.6,0.96,1.09,1.5,1.64c0.62,0.46,1.24,0.97,1.98,1.31
		c0.68,0.44,1.5,0.65,2.27,0.95c0.39,0.12,0.81,0.19,1.21,0.29c0.41,0.07,0.8,0.22,1.22,0.23c0.82,0.04,1.62,0.22,2.42,0.19
		c0.79-0.01,1.56-0.01,2.28-0.02c0.73-0.07,1.41-0.14,2.05-0.21c0.64-0.05,1.22-0.14,1.73-0.24c0.51-0.09,0.96-0.17,1.33-0.23
		c0.75-0.12,1.17-0.18,1.17-0.18s-0.41,0.13-1.13,0.36c-0.36,0.11-0.8,0.24-1.3,0.4c-0.25,0.08-0.52,0.16-0.8,0.24
		c-0.29,0.07-0.6,0.11-0.91,0.18c-0.64,0.12-1.33,0.24-2.07,0.37c-0.74,0.08-1.53,0.12-2.35,0.17c-0.41,0.04-0.83,0-1.25-0.02
		c-0.42-0.03-0.85-0.06-1.28-0.09c-0.43-0.01-0.86-0.15-1.29-0.23c-0.43-0.1-0.87-0.17-1.29-0.29c-0.83-0.33-1.69-0.57-2.43-1.06
		c-0.8-0.38-1.44-0.98-2.1-1.5c-0.58-0.61-1.13-1.21-1.51-1.88c-0.22-0.31-0.39-0.64-0.53-0.97c-0.15-0.33-0.32-0.63-0.4-0.96
		c-0.09-0.32-0.2-0.62-0.27-0.91c-0.04-0.3-0.08-0.58-0.12-0.85c-0.04-0.26-0.01-0.52-0.02-0.75c0-0.23,0-0.44,0.05-0.64
		c0.04-0.19,0.07-0.36,0.1-0.5c0.05-0.14,0.11-0.25,0.15-0.34C227.41,116.76,227.45,116.66,227.45,116.66z"/>
</g>
<path class="st18" d="M266.47,49.4c5.21,5.97,14.24,33.23,14.55,39.2c3.68,0.61,3.22-7.2,3.22-7.2s-5.05-36.6-16.85-43.03
	c-11.79-6.43-28.48-12.25-44.1-5.36c-15.62,6.89-25.88,20.67-27.26,26.95c-1.38,6.28,2.14,25.42,2.14,25.42l2.3,6.89l2.6-0.46
	c0,0-4.9-30.32,6.89-42.11c3.65,4.22,30.43,11.95,23.91,6.35c11.1,4.68,29.63-1.63,21.49-2.44C265.44,51.88,266.47,49.4,266.47,49.4
	z"/>
<path class="st27" d="M265.07,122.78c0,13.73-14.84,18.84-25.67,18.84c-10.83,0-25.67-5.12-25.67-18.84s14.84-30.87,25.67-30.87
	C250.23,91.9,265.07,109.05,265.07,122.78z"/>
<polyline class="st28" points="199.2,87.83 221.45,105.21 217.49,113.21 201.95,112.48 "/>
<polyline class="st28" points="283.85,85.81 257.96,105.21 261.91,113.21 277.23,110.67 "/>
<path class="st29" d="M213.74,122.78c0,13.55,14.46,18.7,25.25,18.83V91.92C228.2,92.36,213.74,109.22,213.74,122.78z"/>
<g>
	<path class="st30" d="M228.34,124.25c-1.92-3.37-6.2-4.54-9.57-2.62l-13.11,7.47l6.95,12.2l13.11-7.47
		C229.08,131.91,230.25,127.62,228.34,124.25z"/>
	
		<ellipse transform="matrix(0.9039 -0.4278 0.4278 0.9039 -36.1947 103.6344)" class="st31" cx="212.51" cy="132.36" rx="11.37" ry="14.41"/>
	
		<ellipse transform="matrix(0.9039 -0.4278 0.4278 0.9039 -36.9396 102.9344)" class="st32" cx="210.59" cy="133.67" rx="11.37" ry="14.41"/>
	<path class="st31" d="M218.57,129.89c2.71,5.72,1.33,12.05-3.08,14.13c-4.41,2.09-10.17-0.86-12.88-6.58
		c-2.71-5.72-1.33-12.05,3.08-14.13C210.09,121.23,215.86,124.17,218.57,129.89z"/>
	<path class="st30" d="M203.61,136.82c-2.5-5.28-1.48-11.04,2.15-13.54c-0.02,0.01-0.05,0.02-0.07,0.03
		c-4.41,2.09-5.78,8.41-3.08,14.13c2.71,5.72,8.47,8.66,12.88,6.58c0.34-0.16,0.62-0.39,0.92-0.6
		C212.01,145.45,206.3,142.51,203.61,136.82z"/>
</g>
<g>
	<path class="st30" d="M258.58,124.25c1.92-3.37,6.2-4.54,9.57-2.62l13.11,7.47l-6.95,12.2l-13.11-7.47
		C257.84,131.91,256.66,127.62,258.58,124.25z"/>
	
		<ellipse transform="matrix(0.4278 -0.9039 0.9039 0.4278 37.3809 323.7643)" class="st31" cx="274.4" cy="132.36" rx="14.41" ry="11.37"/>
	<path class="st32" d="M266.06,128.8c-3.41,7.2-1.57,15.2,4.11,17.89c5.67,2.69,13.03-0.97,16.44-8.16
		c3.41-7.2,1.57-15.2-4.11-17.89C276.82,117.95,269.46,121.61,266.06,128.8z"/>
	<path class="st31" d="M268.35,129.89c-2.71,5.72-1.33,12.05,3.08,14.13c4.41,2.09,10.17-0.86,12.88-6.58
		c2.71-5.72,1.33-12.05-3.08-14.13C276.82,121.23,271.06,124.17,268.35,129.89z"/>
	<path class="st30" d="M283.31,136.82c2.5-5.28,1.48-11.04-2.15-13.54c0.02,0.01,0.05,0.02,0.07,0.03
		c4.41,2.09,5.78,8.41,3.08,14.13c-2.71,5.72-8.47,8.66-12.88,6.58c-0.34-0.16-0.62-0.39-0.92-0.6
		C274.9,145.45,280.62,142.51,283.31,136.82z"/>
</g>
<g>
	<rect x="231.99" y="118.25" class="st33" width="16.05" height="1.37"/>
	<rect x="231.99" y="122.43" class="st33" width="16.05" height="1.37"/>
	<rect x="231.99" y="126.61" class="st33" width="16.05" height="1.37"/>
	<rect x="231.99" y="130.78" class="st33" width="16.05" height="1.37"/>
</g>
<g>
	<path class="st34" d="M156.11,472.16c8.41-2.33,15.97-7.42,24.6-8.71c8.64-1.3,18.07,0.11,24.76,5.72
		c10.28,8.62,11.47,24.04,9.66,37.33c-3.43,25.26-13.38,41.18-36.64,45.75c-24.36,4.79-41.52,1.54-65.4,1.04
		c-15.28-0.32-29.31-3.77-40.51-14.18c-11.2-10.41-18.73-25.74-16.96-40.92c1.75-14.97,13.91-23.02,25.72-22.12
		c7.26,0.56,13.72,5.22,20.99,5.69C127.28,483.39,142.5,475.93,156.11,472.16z"/>
</g>
<g class="st35">
	<path class="st36" d="M124.72,532c-56.74-3.63-66.96-25.76-63.29-47.62c-3.02,3.56-5.14,8.2-5.8,13.82
		c-1.78,15.18,5.76,30.51,16.96,40.92c11.2,10.41,25.23,13.86,40.51,14.18c23.88,0.5,41.04,3.75,65.4-1.04
		c22.94-4.51,32.92-20.07,36.48-44.72C203.51,529.68,177.57,535.37,124.72,532z"/>
</g>
<g class="st37">
	<path class="st36" d="M103.19,494.28c27.48,2.84,55.66-4.24,69.01-12.32c10.98-6.64,3.57-12.24-3.54-14.69
		c-4.13,1.76-8.23,3.68-12.55,4.88c-13.61,3.77-28.83,11.23-53.77,9.61c-3.98-0.26-7.73-1.78-11.5-3.19
		C79.5,483.91,84.44,492.34,103.19,494.28z"/>
</g>
<path class="st2" d="M167.81,419.44c0,0-21.93,1.07-35.04,1.87c6,17.4,8.56,35.21,8.4,37.19c-0.16,1.98-16.99,13.51-36.62,17.97
	c-5.94,1.32-8.41,1.98-4.95,4.78c3.46,2.8,9.4,4.78,21.94,3.96c12.54-0.83,36.96-4.45,43.06-6.76c6.1-2.31,5.94-4.29,5.11-10.06
	C168.89,462.61,166.82,437.59,167.81,419.44z"/>
<path class="st2" d="M270.07,529.89c0,0-3.58,14.51-5.86,18.68c-2.29,4.17-1.89,11.82,18.38,11.82c20.27,0,19.27-8.05,17.29-12.62
	c-1.99-4.57-5.86-13.51-7.75-17.98c-1.98-6.5-0.27-33.95-0.27-33.95l-28.44,0.62C263.42,496.46,269.55,518.03,270.07,529.89z"/>
<path class="st38" d="M291.85,495.84l-28.44,0.62c0,0,0.78,2.75,1.81,6.81h26.26C291.66,498.93,291.85,495.84,291.85,495.84z"/>
<path class="st38" d="M167.81,419.44c0,0-21.93,1.07-35.04,1.87c0.9,2.62,1.73,5.24,2.47,7.82c7.98-0.23,22.14-0.81,32.33-2.11
	C167.6,424.41,167.68,421.86,167.81,419.44z"/>
<path class="st5" d="M78.49,496.7c-0.42,1.68-2.39,4.48-3.26,5.1c-1.66,1.19-1.79-3.04-14.85-11.39
	c-9.77-6.25-15.47-9.89-15.47-9.89l1.55-2.42c0,0,5.89,3.77,15.61,9.98C74.83,496.25,78.94,494.9,78.49,496.7z"/>
<path class="st7" d="M75.23,501.8c0.87-0.62,2.84-3.42,3.26-5.1c0.3-1.2-1.42-1-6.36-3.14l-2.44,3.81
	C73.69,500.99,74.12,502.59,75.23,501.8z"/>
<path class="st7" d="M46.46,478.11l-1.55,2.42c0,0,1.43,0.91,4.08,2.61l1.55-2.42C47.9,479.03,46.46,478.11,46.46,478.11z"/>
<path class="st8" d="M43.57,465.31c4.96,3.17,6.41,9.76,3.24,14.72c-3.17,4.96-9.76,6.41-14.72,3.24
	c-4.96-3.17-6.41-9.76-3.24-14.72C32.02,463.59,38.61,462.14,43.57,465.31z"/>
<path class="st7" d="M44.36,475.76c-2.73,4.28-8.42,5.53-12.7,2.79c-2.45-1.56-3.9-4.1-4.18-6.78c-1.05,4.3,0.67,8.98,4.61,11.5
	c4.96,3.17,11.55,1.72,14.72-3.24c2.99-4.68,1.86-10.81-2.44-14.15C46.22,468.8,46.34,472.65,44.36,475.76z"/>
<path class="st9" d="M40.44,466.31c0.9,1.69-0.49,4.18-3.11,5.57c-2.61,1.39-5.46,1.15-6.36-0.53c-0.9-1.69,0.49-4.18,3.11-5.57
	C36.69,464.39,39.54,464.63,40.44,466.31z"/>
<path class="st5" d="M189.49,492.93c-0.76-1.56-1.05-4.97-0.79-6.01c0.51-1.98,3.32,1.17,18.69-0.84c11.5-1.51,18.2-2.38,18.2-2.38
	l0.37,2.85c0,0-6.93,0.91-18.37,2.4C192.58,490.92,190.3,494.6,189.49,492.93z"/>
<path class="st7" d="M188.7,486.92c-0.27,1.04,0.03,4.45,0.79,6.01c0.54,1.11,1.74-0.15,6.89-1.69l-0.59-4.49
	C190.4,486.56,189.03,485.61,188.7,486.92z"/>
<path class="st7" d="M225.97,486.55l-0.37-2.85c0,0-1.68,0.22-4.8,0.63l0.37,2.85C224.26,486.77,225.97,486.55,225.97,486.55z"/>

<g class="scale3" style="animation: 1s scale3 infinite linear alternate;">
<circle class="st8" cx="235.03" cy="483.91" r="10.66"/>
<path class="st7" d="M229.09,487c-0.66-5.03,2.89-9.65,7.92-10.31c2.88-0.38,5.62,0.63,7.56,2.49c-1.97-3.97-6.29-6.44-10.93-5.84
	c-5.84,0.76-9.95,6.12-9.19,11.95c0.72,5.51,5.53,9.48,10.98,9.26C232.14,493.52,229.57,490.65,229.09,487z"/>
<path class="st9" d="M238.16,491.7c-1.77-0.71-2.31-3.52-1.21-6.27c1.11-2.75,3.44-4.4,5.21-3.68c1.77,0.71,2.31,3.52,1.21,6.27
	C242.27,490.77,239.93,492.42,238.16,491.7z"/>
</g>

<path class="st5" d="M102.74,517.75c1.7,0.35,4.57,2.21,5.23,3.06c1.25,1.61-2.96,1.91-10.78,15.29
	c-5.85,10.01-9.26,15.85-9.26,15.85l-2.48-1.45c0,0,3.53-6.04,9.35-15.99C102.44,521.43,100.93,517.38,102.74,517.75z"/>
<path class="st7" d="M107.97,520.81c-0.66-0.85-3.53-2.7-5.23-3.06c-1.21-0.25-0.95,1.46-2.88,6.48l3.91,2.28
	C107.22,522.38,108.81,521.88,107.97,520.81z"/>
<path class="st7" d="M85.45,550.5l2.48,1.45c0,0,0.86-1.46,2.44-4.18l-2.48-1.45C86.32,549.02,85.45,550.5,85.45,550.5z"/>
<g class="scale4" style="animation: 1s scale4 infinite linear alternate;">
<path class="st8" d="M72.78,553.9c2.97-5.08,9.5-6.8,14.58-3.82s6.8,9.5,3.82,14.58c-2.97,5.08-9.5,6.8-14.58,3.82
	C71.52,565.51,69.81,558.99,72.78,553.9z"/>
<path class="st7" d="M83.19,552.7c4.38,2.56,5.86,8.19,3.3,12.57c-1.47,2.51-3.94,4.06-6.6,4.45c4.34,0.87,8.95-1.03,11.31-5.06
	c2.97-5.08,1.26-11.61-3.82-14.58c-4.8-2.8-10.88-1.43-14.04,3.01C76.16,551.11,80,550.83,83.19,552.7z"/>
<path class="st9" d="M73.9,556.99c1.65-0.96,4.2,0.33,5.69,2.88c1.5,2.56,1.37,5.41-0.28,6.37c-1.65,0.96-4.2-0.33-5.69-2.88
	C72.13,560.81,72.26,557.95,73.9,556.99z"/>
</g>
<path class="st5" d="M96.68,487.13c-1.88,1.03-6.05,1.59-7.34,1.32c-2.46-0.5,1.25-4.16-2.14-22.95
	c-2.53-14.05-4.01-22.25-4.01-22.25l3.48-0.63c0,0,1.53,8.47,4.04,22.45C94.03,483.44,98.69,486.03,96.68,487.13z"/>
<path class="st7" d="M89.34,488.45c1.29,0.27,5.47-0.29,7.34-1.32c1.33-0.73-0.28-2.13-2.49-8.37l-5.48,0.99
	C88.79,486.38,87.7,488.12,89.34,488.45z"/>

<g style="animation: 2s scale infinite linear alternate;">
	<path class="st7" d="M86.68,442.63l-3.48,0.63c0,0,0.37,2.06,1.06,5.87l3.48-0.63C87.05,444.71,86.68,442.63,86.68,442.63z"/>
	<path class="st8" d="M95.82,429.31c1.28,7.14-3.46,13.96-10.59,15.25c-7.14,1.28-13.96-3.46-15.25-10.59
	c-1.28-7.14,3.46-13.96,10.59-15.25C87.71,417.43,94.54,422.18,95.82,429.31z"/>
	<path class="st7" d="M87.04,438.77c-6.15,1.11-12.04-2.98-13.15-9.14c-0.63-3.52,0.44-6.95,2.62-9.45
	c-4.76,2.65-7.56,8.12-6.53,13.79c1.28,7.14,8.11,11.88,15.25,10.59c6.73-1.21,11.33-7.36,10.75-14.05
	C94.88,434.63,91.51,437.96,87.04,438.77z"/>
	<path class="st9" d="M92.3,427.32c-0.77,2.22-4.19,3.05-7.64,1.85c-3.45-1.2-5.61-3.97-4.84-6.19c0.77-2.22,4.19-3.05,7.64-1.85
	C90.9,422.33,93.07,425.1,92.3,427.32z"/>
</g>
	
<path class="st5" d="M195.26,475.35c-2.12,0.26-6.21-0.77-7.31-1.5c-2.1-1.38,2.7-3.4,6.54-22.1c2.87-13.99,4.55-22.14,4.55-22.14
	l3.46,0.71c0,0-1.73,8.43-4.59,22.34C194.16,470.94,197.52,475.07,195.26,475.35z"/>
<path class="st7" d="M187.95,473.85c1.1,0.73,5.19,1.76,7.31,1.5c1.51-0.18,0.53-2.08,0.8-8.7l-5.46-1.12
	C188.21,471.72,186.55,472.93,187.95,473.85z"/>
<path class="st7" d="M202.5,430.32l-3.46-0.71c0,0-0.42,2.05-1.2,5.84l3.46,0.71C202.08,432.39,202.5,430.32,202.5,430.32z"/>
<g class="scale2" style="animation: 1.5s scale2 infinite linear alternate;">
<path class="st8" d="M215.94,421.35c-1.46,7.1-8.4,11.68-15.5,10.22c-7.1-1.46-11.68-8.4-10.22-15.5c1.46-7.1,8.4-11.68,15.5-10.22
	C212.82,407.31,217.4,414.25,215.94,421.35z"/>
<path class="st7" d="M204.28,426.87c-6.12-1.26-10.07-7.24-8.81-13.37c0.72-3.5,2.99-6.29,5.95-7.8
	c-5.41,0.69-10.03,4.73-11.19,10.37c-1.46,7.1,3.12,14.04,10.22,15.5c6.7,1.38,13.26-2.62,15.2-9.05
	C213.09,425.94,208.73,427.78,204.28,426.87z"/>
<path class="st9" d="M213.41,418.19c-1.54,1.77-5.02,1.27-7.78-1.12c-2.75-2.39-3.74-5.77-2.19-7.54c1.54-1.77,5.02-1.27,7.78,1.12
	C213.97,413.04,214.95,416.42,213.41,418.19z"/>
</g>
<path class="st5" d="M73.89,515.23c0.92,0.72,2.1,2.69,2.25,3.39c0.28,1.34-2.35,0.27-11.03,6.02c-6.49,4.3-10.28,6.8-10.28,6.8
	l-1.06-1.61c0,0,3.91-2.59,10.37-6.87C72.61,517.36,72.9,514.47,73.89,515.23z"/>
<path class="st7" d="M76.13,518.63c-0.15-0.7-1.33-2.67-2.25-3.39c-0.65-0.51-1,0.6-3.66,3.05l1.68,2.53
	C75.21,519.35,76.32,519.52,76.13,518.63z"/>
<path class="st7" d="M53.76,529.84l1.06,1.61c0,0,0.95-0.63,2.71-1.8l-1.06-1.61C54.72,529.21,53.76,529.84,53.76,529.84z"/>
<path class="st8" d="M45.12,528.14c3.3-2.18,7.74-1.28,9.92,2.02c2.18,3.3,1.28,7.74-2.02,9.92c-3.3,2.18-7.74,1.28-9.92-2.02
	C40.92,534.76,41.83,530.32,45.12,528.14z"/>
<path class="st7" d="M51.75,530.49c1.88,2.84,1.1,6.67-1.74,8.55c-1.63,1.08-3.57,1.28-5.3,0.73c2.36,1.81,5.69,2.03,8.31,0.3
	c3.3-2.18,4.2-6.62,2.02-9.92c-2.06-3.11-6.13-4.09-9.35-2.35C47.98,527.46,50.38,528.43,51.75,530.49z"/>
<path class="st9" d="M44.93,530.58c1.28-0.09,2.43,1.44,2.57,3.42s-0.78,3.67-2.06,3.76c-1.28,0.09-2.43-1.44-2.57-3.42
	S43.65,530.67,44.93,530.58z"/>
<path class="st5" d="M158.62,496.06c-0.97,0.38-3.03,0.39-3.64,0.19c-1.16-0.4,0.86-1.94,0.39-11.26
	c-0.36-6.97-0.56-11.04-0.56-11.04l1.73-0.09c0,0,0.21,4.2,0.57,11.14C157.56,494.1,159.66,495.65,158.62,496.06z"/>
<path class="st7" d="M154.98,496.24c0.61,0.21,2.67,0.2,3.64-0.19c0.69-0.27-0.01-1.05-0.69-4.22l-2.72,0.14
	C154.84,495.21,154.2,495.98,154.98,496.24z"/>
<path class="st7" d="M156.52,473.85l-1.73,0.09c0,0,0.05,1.02,0.15,2.91l1.73-0.09C156.58,474.89,156.52,473.85,156.52,473.85z"/>
<path class="st8" d="M161.78,467.96c0.18,3.54-2.54,6.56-6.08,6.74c-3.54,0.18-6.56-2.54-6.74-6.08c-0.18-3.54,2.54-6.56,6.08-6.74
	C158.59,461.7,161.6,464.42,161.78,467.96z"/>
<path class="st7" d="M156.94,472c-3.05,0.16-5.65-2.19-5.81-5.25c-0.09-1.75,0.64-3.34,1.86-4.42c-2.48,0.99-4.17,3.47-4.02,6.28
	c0.18,3.54,3.2,6.26,6.74,6.08c3.34-0.17,5.95-2.87,6.08-6.15C161,470.48,159.16,471.89,156.94,472z"/>
<path class="st9" d="M160.2,466.78c-0.51,1.03-2.22,1.22-3.82,0.43c-1.6-0.79-2.48-2.27-1.96-3.3c0.51-1.03,2.22-1.22,3.82-0.43
	C159.83,464.27,160.71,465.75,160.2,466.78z"/>
<path class="st5" d="M121.98,512.26c-0.62,0.84-2.37,1.94-3,2.08c-1.2,0.28-0.29-2.1-5.62-9.76c-3.99-5.73-3.39-4.89-3.39-4.89
	l1.42-0.99c0,0-0.52-0.73,3.44,4.97C120.04,511.16,122.64,511.36,121.98,512.26z"/>
<path class="st7" d="M118.98,514.35c0.63-0.15,2.37-1.24,3-2.08c0.44-0.6-0.56-0.89-2.81-3.22l-2.24,1.56
	C118.32,513.54,118.19,514.53,118.98,514.35z"/>
<path class="st7" d="M111.39,498.7l-1.42,0.99c0,0,0.58,0.84,1.67,2.39l1.42-0.99C111.98,499.55,111.39,498.7,111.39,498.7z"/>
<path class="st8" d="M112.74,490.92c2.02,2.91,1.31,6.91-1.6,8.93c-2.91,2.02-6.91,1.31-8.93-1.6c-2.02-2.91-1.31-6.91,1.6-8.93
	C106.72,487.29,110.72,488.01,112.74,490.92z"/>
<path class="st7" d="M110.77,496.91c-2.51,1.75-5.96,1.13-7.71-1.38c-1-1.44-1.22-3.18-0.76-4.73c-1.58,2.15-1.7,5.15-0.1,7.46
	c2.02,2.91,6.02,3.63,8.93,1.6c2.75-1.91,3.54-5.58,1.92-8.43C113.41,493.47,112.59,495.64,110.77,496.91z"/>
<path class="st9" d="M110.77,490.75c0.11,1.14-1.24,2.21-3.02,2.38c-1.78,0.17-3.3-0.62-3.41-1.77c-0.11-1.14,1.24-2.21,3.02-2.38
	C109.14,488.82,110.66,489.61,110.77,490.75z"/>
<path class="st5" d="M123.23,538.15c1.05,0.03,2.94,0.84,3.42,1.27c0.91,0.83-1.56,1.44-4.81,10.19c-2.43,6.55-2.08,5.57-2.08,5.57
	l-1.62-0.6c0,0-0.3,0.85,2.12-5.66C123.44,540.37,122.12,538.12,123.23,538.15z"/>
<path class="st7" d="M126.65,539.42c-0.48-0.43-2.38-1.24-3.42-1.27c-0.74-0.02-0.41,0.97-1.04,4.14l2.55,0.95
	C126.37,540.43,127.26,539.97,126.65,539.42z"/>
<path class="st7" d="M118.14,554.58l1.62,0.6c0,0,0.36-0.96,1.01-2.73l-1.62-0.6C118.5,553.62,118.14,554.58,118.14,554.58z"/>
<path class="st8" d="M110.98,557.92c1.23-3.32,4.93-5.02,8.25-3.78c3.32,1.23,5.02,4.93,3.78,8.25c-1.23,3.32-4.93,5.02-8.25,3.78
	C111.44,564.93,109.75,561.24,110.98,557.92z"/>
<path class="st7" d="M117.03,556.12c2.87,1.06,4.33,4.25,3.26,7.12c-0.61,1.64-1.91,2.82-3.45,3.33c2.67,0.07,5.2-1.54,6.18-4.18
	c1.23-3.32-0.46-7.02-3.78-8.25c-3.14-1.16-6.6,0.28-8.02,3.24C112.7,555.91,114.95,555.35,117.03,556.12z"/>
<path class="st9" d="M111.97,559.63c0.88-0.74,2.52-0.24,3.68,1.12c1.15,1.36,1.38,3.07,0.5,3.81c-0.88,0.74-2.52,0.24-3.68-1.12
	C111.32,562.08,111.09,560.37,111.97,559.63z"/>
<path class="st5" d="M160.74,538.16c0.52-0.91,2.13-2.2,2.74-2.41c1.16-0.41,0.53,2.05,6.7,9.06c4.62,5.24,3.92,4.47,3.92,4.47
	l-1.3,1.14c0,0,0.6,0.66-3.99-4.55C162.78,539.03,160.18,539.13,160.74,538.16z"/>
<path class="st7" d="M163.48,535.75c-0.61,0.22-2.21,1.51-2.74,2.41c-0.37,0.64,0.66,0.82,3.16,2.87l2.04-1.8
	C164.23,536.47,164.25,535.47,163.48,535.75z"/>
<path class="st7" d="M172.8,550.42l1.3-1.14c0,0-0.68-0.77-1.93-2.19l-1.3,1.14C172.12,549.65,172.8,550.42,172.8,550.42z"/>
<path class="st8" d="M172.35,558.31c-2.34-2.66-2.09-6.72,0.57-9.06c2.66-2.34,6.72-2.09,9.06,0.57c2.34,2.66,2.09,6.72-0.57,9.06
	C178.75,561.22,174.69,560.97,172.35,558.31z"/>
<path class="st7" d="M173.63,552.13c2.29-2.02,5.79-1.8,7.81,0.49c1.16,1.31,1.58,3.02,1.3,4.62c1.32-2.32,1.11-5.31-0.76-7.42
	c-2.34-2.66-6.4-2.92-9.06-0.57c-2.51,2.21-2.88,5.95-0.94,8.6C171.39,555.85,171.96,553.6,173.63,552.13z"/>
<path class="st9" d="M174.32,558.25c-0.24-1.12,0.98-2.34,2.73-2.71c1.74-0.37,3.35,0.24,3.59,1.36c0.24,1.12-0.98,2.34-2.73,2.71
	C176.17,559.98,174.56,559.37,174.32,558.25z"/>
<path class="st5" d="M135.25,500.92c-1.54,0.94-5.03,1.59-6.13,1.42c-2.09-0.32,0.88-3.55-2.75-19.23
	c-2.71-11.72-4.29-18.56-4.29-18.56l2.9-0.67c0,0,1.64,7.07,4.33,18.73C132.86,497.92,136.89,499.91,135.25,500.92z"/>
<path class="st7" d="M129.12,502.33c1.1,0.17,4.59-0.47,6.13-1.42c1.09-0.67-0.33-1.78-2.44-6.95l-4.57,1.06
	C128.57,500.61,127.73,502.12,129.12,502.33z"/>
<path class="st7" d="M124.98,463.87l-2.9,0.67c0,0,0.4,1.71,1.13,4.9l2.9-0.67C125.38,465.61,124.98,463.87,124.98,463.87z"/>
<path class="st8" d="M132.13,452.29c1.38,5.95-2.33,11.89-8.28,13.27c-5.95,1.38-11.89-2.33-13.27-8.28
	c-1.38-5.95,2.33-11.89,8.28-13.27C124.81,442.62,130.75,446.33,132.13,452.29z"/>
<path class="st7" d="M125.13,460.61c-5.13,1.19-10.26-2.01-11.45-7.14c-0.68-2.94,0.08-5.87,1.81-8.06
	c-3.9,2.43-6.02,7.15-4.93,11.87c1.38,5.95,7.32,9.66,13.27,8.28c5.62-1.3,9.23-6.67,8.46-12.27
	C131.56,456.8,128.86,459.74,125.13,460.61z"/>
<path class="st9" d="M129.08,450.76c-0.56,1.9-3.4,2.74-6.35,1.88c-2.95-0.87-4.89-3.11-4.33-5.01c0.56-1.9,3.4-2.74,6.35-1.88
	C127.7,446.61,129.64,448.85,129.08,450.76z"/>
<path class="st5" d="M179.03,521.66c0.29-1.78,2.08-4.85,2.92-5.57c1.61-1.38,2.12,2.98,16.37,10.46
	c10.66,5.59,16.87,8.85,16.87,8.85l-1.38,2.64c0,0-6.42-3.37-17.02-8.93C182.86,521.8,178.72,523.56,179.03,521.66z"/>
<path class="st7" d="M181.95,516.09c-0.85,0.72-2.64,3.79-2.92,5.57c-0.2,1.26,1.56,0.91,6.86,2.68l2.18-4.16
	C183.61,516.8,183.02,515.17,181.95,516.09z"/>
<path class="st7" d="M213.8,538.04l1.38-2.64c0,0-1.56-0.82-4.45-2.34l-1.38,2.64C212.22,537.21,213.8,538.04,213.8,538.04z"/>
<ellipse transform="matrix(0.9111 -0.4123 0.4123 0.9111 -203.2866 140.0939)" class="st8" cx="223.06" cy="541.22" rx="11.06" ry="11.06"/>
<path class="st7" d="M216.18,540.29c2.45-4.67,8.22-6.46,12.88-4.01c2.67,1.4,4.39,3.89,4.93,6.64c0.7-4.54-1.49-9.23-5.78-11.48
	c-5.41-2.84-12.1-0.76-14.94,4.65c-2.68,5.11-0.97,11.35,3.78,14.42C214.87,547.64,214.4,543.68,216.18,540.29z"/>
<path class="st9" d="M221.07,549.71c-1.08-1.66,0.14-4.37,2.72-6.04c2.58-1.67,5.54-1.68,6.62-0.01c1.08,1.66-0.14,4.37-2.72,6.04
	C225.11,551.36,222.15,551.37,221.07,549.71z"/>
<ellipse transform="matrix(0.9942 -0.1078 0.1078 0.9942 -54.913 20.6705)" class="st8" cx="163.65" cy="518.02" rx="6.42" ry="6.42"/>
<path class="st7" d="M159.71,518.89c0.4-3.03,3.19-5.16,6.22-4.76c1.73,0.23,3.17,1.24,4.01,2.63c-0.52-2.61-2.65-4.73-5.44-5.1
	c-3.51-0.47-6.74,2-7.21,5.51c-0.44,3.32,1.73,6.38,4.93,7.1C160.47,523.15,159.42,521.09,159.71,518.89z"/>
<path class="st9" d="M164.25,523.04c-0.92-0.69-0.79-2.41,0.28-3.83c1.07-1.42,2.69-2.02,3.6-1.33c0.92,0.69,0.79,2.41-0.28,3.83
	C166.79,523.14,165.17,523.73,164.25,523.04z"/>
<path class="st8" d="M128.45,535.74c-1.07-3.38,0.8-6.99,4.18-8.06c3.38-1.07,6.99,0.8,8.06,4.18c1.07,3.38-0.8,6.99-4.18,8.06
	C133.13,540.99,129.52,539.12,128.45,535.74z"/>
<path class="st7" d="M132.11,530.61c2.91-0.92,6.03,0.69,6.95,3.6c0.53,1.67,0.22,3.4-0.68,4.75c2.14-1.59,3.15-4.41,2.3-7.1
	c-1.07-3.38-4.68-5.25-8.06-4.18c-3.19,1.01-5.03,4.28-4.33,7.49C128.57,533.11,129.99,531.28,132.11,530.61z"/>
<path class="st9" d="M130.28,536.49c0.23-1.13,1.84-1.74,3.59-1.38s2.97,1.57,2.74,2.7c-0.23,1.13-1.84,1.74-3.59,1.38
	S130.05,537.61,130.28,536.49z"/>
<path class="st8" d="M85.57,510.93c0.99-3.4,4.55-5.36,7.96-4.37s5.36,4.55,4.37,7.96c-0.99,3.4-4.55,5.36-7.96,4.37
	C86.54,517.9,84.58,514.34,85.57,510.93z"/>
<path class="st7" d="M91.47,508.7c2.94,0.85,4.62,3.93,3.77,6.86c-0.49,1.68-1.7,2.95-3.2,3.57c2.66-0.13,5.07-1.91,5.86-4.61
	c0.99-3.4-0.97-6.97-4.37-7.96c-3.21-0.93-6.56,0.76-7.76,3.81C87.14,508.81,89.34,508.08,91.47,508.7z"/>
<path class="st9" d="M86.68,512.57c0.82-0.8,2.5-0.42,3.75,0.85c1.25,1.27,1.59,2.96,0.77,3.76c-0.82,0.8-2.5,0.42-3.75-0.85
	C86.21,515.06,85.86,513.37,86.68,512.57z"/>
<path class="st2" d="M234.55,268.08c-8.07,2.82-10.51,2.46-16.76,1.29c-6.25-1.17-8.4,6.44-8.4,6.44s6.08,0.49,5.59,3.81
	c-0.15,1-1.5,1.6-4.79,1.34c-2.29-0.14-5.84-0.64-5.84-0.64s-0.39,11.38,11.38,13.07c11.77,1.69,17.12,2.16,19.3-2.81
	c2.18-4.97,8.19-7.23,12.23-8.97c4.04-1.74,15.84-7.12,15.84-7.12l-10.61-14.6C252.48,259.89,242.62,265.26,234.55,268.08z"/>
<path class="st4" d="M296.01,249.03l24.36-14.46c0,0-39.53-67.87-44.92-75.67c-5.39-7.8-23.91,19.42-14.55,35.75
	C267.75,206.59,296.01,249.03,296.01,249.03z"/>
<path class="st4" d="M320.51,234.91c4.57,9.06-2.16,18.6-16.57,26.77c-22.88,12.96-47.54,21.18-47.54,21.18s-9.93-13.77-11.39-22.58
	c12.71-6.02,28.48-13.26,42.72-21.41C307.21,227.73,315.94,225.85,320.51,234.91z"/>
<path class="st2" d="M115.21,268.48c-9.57-1.06-11-10.35-5.23-13.92c5.76-3.58,17.74-1.31,18.88,4.19
	c1.14,5.5,4.99,10.27,4.99,10.27S131.03,271.02,115.21,268.48z"/>
<path class="st39" d="M284.9,290.94c-0.49,4.51-1.76,8.08-2.83,7.96c-1.07-0.12-1.54-3.87-1.04-8.38c0.49-4.51,1.76-8.08,2.83-7.96
	C284.93,282.68,285.39,286.43,284.9,290.94z"/>
<linearGradient id="SVGID_5_" gradientUnits="userSpaceOnUse" x1="283.2761" y1="344.2942" x2="347.8311" y2="344.2942">
	<stop  offset="0" style="stop-color:#FFEE25"/>
	<stop  offset="0.0178" style="stop-color:#FFE920"/>
	<stop  offset="0.102" style="stop-color:#FED60E"/>
	<stop  offset="0.1886" style="stop-color:#FDCB04"/>
	<stop  offset="0.2809" style="stop-color:#FDC700"/>
	<stop  offset="0.6685" style="stop-color:#F08F34"/>
	<stop  offset="0.8876" style="stop-color:#E86031"/>
	<stop  offset="1" style="stop-color:#E2312D"/>
</linearGradient>
<path class="st40" d="M304.43,265.27c20.28,1.96,22.61,39.57,20.74,59.01c-1.87,19.44-3.64,27.93-6.76,46.71
	c-5.87,35.38-3.04,52.98,11.33,52.3c14.36-0.68,17.48-18.04,16.21-36.3c-0.96-13.81-3.5-27.59-8.06-40.66
	c-8.43-24.14-26.35-51.29-52.99-55.39"/>
</svg>
